<?xml version="1.0" standalone="no"?>
<!DOCTYPE svg PUBLIC "-//W3C//DTD SVG 20010904//EN"
 "http://www.w3.org/TR/2001/REC-SVG-20010904/DTD/svg10.dtd">
<svg version="1.0" xmlns="http://www.w3.org/2000/svg"
 width="700.000000pt" height="700.000000pt" viewBox="0 0 700.000000 700.000000"
 preserveAspectRatio="xMidYMid meet">
<metadata>
Created by potrace 1.14, written by Peter Selinger 2001-2017
</metadata>
<g transform="translate(0.000000,700.000000) scale(0.100000,-0.100000)"
fill="#000000" stroke="none">
<path d="M3278 6995 c-1 -1 -41 -5 -88 -9 -47 -4 -101 -9 -120 -12 -39 -6
-208 -33 -255 -41 -62 -10 -297 -72 -392 -103 -289 -94 -619 -253 -858 -413
-76 -51 -279 -202 -300 -223 -9 -9 -35 -32 -58 -51 -23 -19 -86 -78 -141 -131
l-98 -96 -223 0 -223 -1 0 -288 -1 -288 -47 -82 c-161 -277 -289 -590 -363
-885 -25 -98 -37 -155 -66 -312 -28 -150 -40 -323 -40 -565 0 -228 6 -322 30
-480 2 -16 7 -52 10 -80 4 -27 10 -66 15 -85 5 -19 12 -48 14 -65 53 -296 210
-711 382 -1011 35 -62 64 -116 64 -122 0 -6 4 -12 8 -14 18 -6 142 -200 135
-211 -3 -5 -1 -7 4 -4 6 4 16 0 23 -8 7 -8 9 -15 5 -15 -4 0 2 -8 12 -17 11
-10 51 -56 89 -103 75 -92 71 -88 191 -212 393 -409 886 -718 1420 -892 119
-39 286 -84 377 -102 75 -15 187 -34 221 -39 22 -2 56 -7 75 -10 192 -27 676
-27 841 0 13 2 42 6 64 9 182 24 439 84 625 146 144 49 370 141 445 182 82 45
109 57 119 51 6 -3 8 -3 4 2 -10 11 41 37 56 28 6 -3 8 -2 4 2 -5 5 9 19 30
31 45 28 59 30 41 6 -13 -15 -12 -16 3 -3 10 7 16 17 13 21 -3 5 -1 11 5 15 5
3 10 0 11 -7 0 -7 4 -3 10 10 5 13 13 20 19 17 6 -3 13 0 16 9 3 9 18 14 35
14 16 -1 32 2 35 5 3 3 16 2 29 -3 14 -5 26 -5 34 3 8 8 11 8 11 -1 0 -6 6 -9
13 -6 8 3 13 -3 13 -16 0 -23 -14 -27 -22 -5 -4 8 -10 15 -15 15 -16 0 -10
-15 11 -28 17 -11 24 -10 43 4 17 13 18 15 3 10 -14 -5 -17 -2 -12 10 3 8 6
19 6 22 0 4 5 0 10 -8 7 -12 12 -12 22 -2 10 10 15 8 25 -10 9 -15 12 -17 11
-6 -3 17 6 20 29 11 7 -3 11 -9 8 -14 -3 -4 4 -13 15 -19 16 -8 25 -7 43 6 17
13 18 15 3 10 -14 -5 -17 -2 -12 10 3 8 6 18 6 20 0 2 8 4 18 4 14 0 15 -2 2
-10 -9 -6 -10 -10 -3 -10 7 0 16 6 20 13 4 6 19 13 33 14 27 1 91 11 126 18
21 5 21 4 15 -47 -1 -4 -9 -5 -18 -2 -15 5 -16 4 -3 -5 18 -13 42 12 33 35 -3
8 -1 14 5 14 6 0 12 -5 14 -12 3 -7 7 -5 11 6 4 9 3 15 -2 11 -5 -3 -12 -2
-15 3 -3 5 0 9 7 10 27 1 60 12 73 23 8 6 14 8 14 5 0 -4 9 -2 20 4 15 8 21 6
29 -9 10 -18 6 -31 -10 -31 -5 0 -5 8 -2 17 6 15 5 16 -9 3 -11 -11 -13 -17
-4 -23 7 -5 3 -7 -9 -5 -13 3 -19 10 -17 22 3 15 1 16 -11 5 -13 -12 -12 -16
4 -27 12 -8 28 -10 42 -6 12 5 26 7 30 6 5 -1 6 2 2 8 -3 5 -1 10 5 10 7 0 5
7 -4 16 -9 8 -16 23 -16 32 1 12 5 10 16 -8 13 -22 14 -22 9 -3 -4 15 0 25 13
32 11 6 22 7 26 4 3 -3 6 1 6 10 0 9 5 17 11 17 6 0 20 11 31 25 11 14 25 25
31 25 7 0 4 -7 -6 -14 -10 -8 -14 -16 -10 -18 4 -3 2 -3 -5 -1 -7 1 -10 -2 -7
-7 8 -14 18 -13 41 5 18 15 18 15 0 8 -15 -5 -17 -3 -10 8 4 8 9 20 9 28 0 8
6 15 13 17 7 1 8 0 3 -2 -11 -6 -3 -34 8 -34 10 0 8 31 -3 48 -4 6 -3 12 3 12
5 0 16 11 23 24 35 64 82 152 83 156 1 3 8 19 15 35 7 17 12 37 11 45 -2 12 0
12 10 3 10 -10 9 -16 -2 -29 -9 -12 -10 -15 -1 -10 6 4 12 3 12 -3 0 -5 -8
-15 -17 -20 -10 -6 -13 -11 -7 -11 6 0 10 -10 9 -23 -4 -41 16 -64 28 -33 4 9
1 13 -6 10 -7 -2 -13 4 -14 16 -1 11 2 20 7 20 5 0 8 13 6 30 -2 16 3 38 10
47 16 22 17 33 3 33 -5 0 -8 -4 -4 -9 3 -5 1 -12 -4 -15 -5 -3 -11 1 -15 9 -3
8 3 19 14 25 15 8 21 6 29 -7 9 -14 10 -11 6 16 -5 30 -4 33 10 21 8 -7 15 -8
15 -4 0 5 -9 15 -20 22 -12 7 -18 18 -14 25 4 7 3 8 -2 4 -5 -5 -9 -20 -9 -34
0 -15 -5 -28 -11 -30 -13 -4 -11 34 3 63 5 11 9 31 8 47 -1 21 3 26 16 22 10
-3 21 0 25 6 5 8 2 10 -8 7 -8 -4 -21 -2 -29 3 -10 6 -8 9 11 9 l25 1 -23 10
c-15 6 -21 13 -15 21 4 7 7 32 5 56 -1 27 2 41 8 37 6 -3 10 -1 10 4 0 6 -4
11 -8 11 -4 0 -8 16 -8 35 0 19 4 35 9 35 5 0 7 -7 4 -14 -4 -10 -1 -13 9 -9
20 7 18 21 -5 28 -19 6 -22 20 -8 42 5 7 4 13 -1 13 -5 0 -9 7 -9 16 0 15 1
15 12 0 7 -9 16 -16 20 -16 4 0 3 6 -2 13 -6 6 -9 26 -8 42 0 17 -3 35 -8 42
-11 15 41 106 55 96 6 -3 8 -1 4 5 -7 12 13 62 26 62 4 0 7 3 6 8 -3 15 25 61
35 55 6 -3 7 -1 3 5 -9 14 14 63 27 55 6 -4 7 -1 2 6 -7 12 21 79 38 92 5 3 9
10 9 15 0 5 6 24 14 43 8 18 14 35 14 38 0 2 8 23 19 46 51 114 150 428 177
562 36 178 61 340 72 465 9 104 8 496 -1 605 -10 104 -14 137 -33 260 -39 253
-142 606 -241 824 -13 30 -22 60 -19 67 3 8 1 13 -4 11 -5 -1 -27 35 -49 79
-30 62 -36 85 -28 93 9 9 8 11 -5 6 -13 -5 -18 -2 -18 9 0 9 -5 16 -11 16 -8
0 -7 5 1 15 7 9 10 18 6 22 -3 3 -6 1 -6 -5 0 -7 -5 -12 -11 -12 -5 0 -7 5 -4
10 3 6 1 10 -4 10 -6 0 -11 7 -11 15 0 8 -9 24 -20 35 -11 11 -20 29 -20 41 0
11 -4 17 -10 14 -5 -3 -10 0 -11 7 0 7 -2 33 -5 56 -3 27 -1 42 4 38 6 -3 13
1 16 10 8 21 8 24 -5 24 -5 0 -7 -4 -4 -10 3 -5 2 -10 -2 -10 -5 0 -9 31 -10
70 0 46 3 68 10 63 6 -4 7 -1 2 7 -5 8 -9 26 -10 42 -2 24 1 28 19 23 19 -5
19 -4 -1 6 -25 13 -30 29 -10 29 8 0 9 3 1 8 -7 4 -11 50 -12 117 0 61 -1 113
-1 116 -1 4 -83 10 -141 9 -8 0 -81 -1 -161 -1 l-146 -2 -104 101 c-125 121
-250 225 -384 321 -55 39 -104 75 -110 79 -36 29 -243 148 -365 209 -213 108
-480 208 -698 263 -96 24 -262 59 -312 65 -19 3 -46 7 -60 10 -13 2 -52 7 -86
11 -33 3 -74 8 -90 10 -32 5 -540 14 -546 9z m3212 -5395 c0 -5 -2 -10 -4 -10
-3 0 -8 5 -11 10 -3 6 -1 10 4 10 6 0 11 -4 11 -10z m-770 -1041 c0 -5 -5 -7
-11 -3 -8 4 -8 0 0 -15 7 -11 8 -21 4 -21 -11 0 -40 20 -29 20 5 0 4 6 -2 13
-8 10 -5 13 14 15 13 1 24 -3 24 -9z"/>
<path d="M6515 5801 c-3 -5 -2 -12 3 -15 5 -3 9 1 9 9 0 17 -3 19 -12 6z"/>
<path d="M6550 5722 c0 -5 7 -9 15 -9 8 0 12 4 9 9 -3 4 -9 8 -15 8 -5 0 -9
-4 -9 -8z"/>
<path d="M6495 5699 c-5 -8 -4 -10 3 -5 12 7 16 -5 13 -31 -1 -7 3 -13 8 -13
11 0 6 39 -8 53 -5 5 -12 4 -16 -4z"/>
<path d="M6596 5673 c-6 -14 -5 -15 5 -6 7 7 10 15 7 18 -3 3 -9 -2 -12 -12z"/>
<path d="M6548 5632 c4 -11 1 -13 -9 -7 -8 4 -11 4 -6 0 4 -5 16 -9 27 -10 14
-1 17 2 10 10 -5 7 -8 14 -5 17 3 2 -1 5 -9 5 -8 0 -12 -6 -8 -15z"/>
<path d="M6510 5580 c0 -5 7 -6 17 -3 12 5 14 3 8 -7 -5 -9 -4 -11 4 -6 6 4 9
12 6 17 -8 12 -35 12 -35 -1z"/>
<path d="M6576 5575 c-9 -26 -7 -32 5 -12 6 10 9 21 6 23 -2 3 -7 -2 -11 -11z"/>
<path d="M6606 5582 c-3 -5 1 -9 9 -9 8 0 12 4 9 9 -3 4 -7 8 -9 8 -2 0 -6 -4
-9 -8z"/>
<path d="M6500 5550 c-8 -5 -12 -12 -9 -15 4 -3 12 1 19 10 14 17 11 19 -10 5z"/>
<path d="M6573 5527 c0 -7 9 -14 20 -14 11 -1 18 -1 16 0 -2 2 -11 8 -20 15
-12 9 -16 9 -16 -1z"/>
<path d="M6518 5523 c7 -3 16 -2 19 1 4 3 -2 6 -13 5 -11 0 -14 -3 -6 -6z"/>
<path d="M6630 5521 c0 -6 4 -13 10 -16 6 -3 7 1 4 9 -7 18 -14 21 -14 7z"/>
<path d="M6497 5509 c7 -7 15 -10 18 -7 3 3 -2 9 -12 12 -14 6 -15 5 -6 -5z"/>
<path d="M6496 5482 c-2 -4 4 -13 15 -20 22 -14 25 -7 5 14 -8 8 -17 11 -20 6z"/>
<path d="M6520 5486 c0 -2 7 -7 16 -10 8 -3 12 -2 9 4 -6 10 -25 14 -25 6z"/>
<path d="M6585 5460 c-3 -6 1 -7 9 -4 18 7 21 14 7 14 -6 0 -13 -4 -16 -10z"/>
<path d="M6542 5440 c0 -14 2 -19 5 -12 2 6 2 18 0 25 -3 6 -5 1 -5 -13z"/>
<path d="M6517 5423 c-4 -3 -7 -11 -7 -17 0 -6 5 -5 12 2 6 6 9 14 7 17 -3 3
-9 2 -12 -2z"/>
<path d="M6539 5403 c-1 -5 -1 -12 0 -17 1 -5 -4 -6 -12 -3 -7 3 -19 -3 -25
-13 -10 -17 -9 -17 15 -5 22 12 42 45 27 45 -2 0 -5 -3 -5 -7z"/>
<path d="M6540 5360 c-9 -6 -10 -10 -3 -10 6 0 15 5 18 10 8 12 4 12 -15 0z"/>
<path d="M6619 5368 c-5 -18 -6 -38 -1 -34 7 8 12 36 6 36 -2 0 -4 -1 -5 -2z"/>
<path d="M6576 5347 c3 -10 9 -15 12 -12 3 3 0 11 -7 18 -10 9 -11 8 -5 -6z"/>
<path d="M6504 5339 c-4 -7 -3 -9 4 -5 5 3 13 0 15 -6 4 -9 6 -10 6 -1 1 17
-16 25 -25 12z"/>
<path d="M6546 5324 c-5 -14 -4 -15 9 -4 17 14 19 20 6 20 -5 0 -12 -7 -15
-16z"/>
<path d="M6550 5283 c8 -3 22 -11 30 -17 13 -10 13 -9 1 7 -7 9 -21 17 -30 16
-13 0 -14 -1 -1 -6z"/>
<path d="M6560 5245 c0 -2 6 -8 13 -14 10 -8 14 -7 14 2 0 8 -6 14 -14 14 -7
0 -13 -1 -13 -2z"/>
<path d="M6596 1807 c3 -10 9 -15 12 -12 3 3 0 11 -7 18 -10 9 -11 8 -5 -6z"/>
<path d="M6551 1767 c2 -1 13 -9 24 -17 19 -14 19 -14 6 3 -7 9 -18 17 -24 17
-6 0 -8 -1 -6 -3z"/>
<path d="M6534 1723 c2 -2 10 -5 18 -7 7 -1 19 -5 25 -9 9 -5 11 -3 7 6 -3 8
-16 15 -30 15 -14 0 -23 -3 -20 -5z"/>
<path d="M6510 1695 c-7 -8 -9 -15 -4 -15 5 0 2 -4 -6 -10 -8 -5 -12 -11 -10
-13 3 -2 19 4 35 15 28 18 28 19 5 13 -24 -6 -24 -5 -6 9 11 9 15 16 9 16 -6
0 -16 -7 -23 -15z"/>
<path d="M6615 1700 c-3 -5 -1 -10 4 -10 6 0 11 5 11 10 0 6 -2 10 -4 10 -3 0
-8 -4 -11 -10z"/>
<path d="M6636 1673 c-6 -14 -5 -15 5 -6 7 7 10 15 7 18 -3 3 -9 -2 -12 -12z"/>
<path d="M6550 1662 c0 -5 7 -9 15 -9 8 0 12 4 9 9 -3 4 -9 8 -15 8 -5 0 -9
-4 -9 -8z"/>
<path d="M6530 1645 c0 -8 4 -15 10 -15 5 0 7 7 4 15 -4 8 -8 15 -10 15 -2 0
-4 -7 -4 -15z"/>
<path d="M6510 1620 c0 -6 7 -10 15 -10 8 0 15 2 15 4 0 2 -7 6 -15 10 -8 3
-15 1 -15 -4z"/>
<path d="M6613 1611 c0 -11 5 -18 9 -15 4 3 5 11 1 19 -7 21 -12 19 -10 -4z"/>
<path d="M6556 1587 c3 -10 9 -15 12 -12 3 3 0 11 -7 18 -10 9 -11 8 -5 -6z"/>
<path d="M6510 1581 c0 -6 7 -7 17 -4 10 4 14 2 9 -5 -3 -6 -2 -13 3 -16 5 -4
8 2 7 11 -3 19 -36 32 -36 14z"/>
<path d="M6593 1569 c-2 -23 3 -25 10 -4 4 8 3 16 -1 19 -4 3 -9 -4 -9 -15z"/>
<path d="M6504 1536 c-19 -15 -19 -15 1 -30 11 -8 22 -12 24 -10 3 2 -4 11
-15 19 -17 13 -17 14 -1 15 9 0 17 5 17 10 0 13 -3 13 -26 -4z"/>
<path d="M6541 1524 c0 -11 3 -14 6 -6 3 7 2 16 -1 19 -3 4 -6 -2 -5 -13z"/>
<path d="M6610 1500 c0 -5 5 -10 11 -10 5 0 7 5 4 10 -3 6 -8 10 -11 10 -2 0
-4 -4 -4 -10z"/>
<path d="M6541 1484 c0 -11 3 -14 6 -6 3 7 2 16 -1 19 -3 4 -6 -2 -5 -13z"/>
<path d="M6507 1456 c-22 -17 -22 -23 3 -36 14 -7 20 -7 20 0 0 5 -8 10 -17
10 -16 1 -16 2 1 15 11 8 18 17 15 19 -2 2 -12 -1 -22 -8z"/>
<path d="M6540 1451 c0 -10 19 -25 25 -20 1 2 -3 10 -11 17 -8 7 -14 8 -14 3z"/>
<path d="M6613 1423 c4 -3 -1 -16 -10 -27 -18 -21 -18 -21 4 -2 20 16 23 36 6
36 -4 0 -3 -3 0 -7z"/>
<path d="M6545 1401 c6 -18 4 -22 -6 -16 -8 5 -11 4 -6 0 4 -5 16 -9 27 -10
19 -2 19 -1 3 19 -10 12 -20 23 -22 26 -2 3 0 -6 4 -19z"/>
<path d="M6500 1400 c0 -5 5 -10 11 -10 5 0 7 5 4 10 -3 6 -8 10 -11 10 -2 0
-4 -4 -4 -10z"/>
<path d="M6496 1363 c11 -21 22 -29 33 -25 13 5 13 6 0 10 -7 2 -22 14 -32 26
-18 20 -18 20 -1 -11z"/>
<path d="M6480 1344 c0 -5 7 -18 15 -28 8 -11 15 -16 15 -10 0 5 -7 18 -15 28
-8 11 -15 16 -15 10z"/>
<path d="M6525 1320 c-3 -6 1 -7 9 -4 18 7 21 14 7 14 -6 0 -13 -4 -16 -10z"/>
<path d="M6534 1295 c-4 -8 -10 -12 -15 -9 -5 3 -6 -2 -2 -12 5 -14 7 -14 18
5 6 12 15 18 20 14 4 -4 5 -2 1 5 -9 16 -15 15 -22 -3z"/>
<path d="M6616 1298 c3 -5 10 -6 15 -3 13 9 11 12 -6 12 -8 0 -12 -4 -9 -9z"/>
<path d="M6589 1243 c-13 -16 -12 -17 4 -4 9 7 17 15 17 17 0 8 -8 3 -21 -13z"/>
<path d="M6556 1233 c-6 -14 -5 -15 5 -6 7 7 10 15 7 18 -3 3 -9 -2 -12 -12z"/>
<path d="M6508 1223 c6 -2 18 -2 25 0 6 3 1 5 -13 5 -14 0 -19 -2 -12 -5z"/>
<path d="M6475 1210 c3 -5 8 -10 11 -10 2 0 4 5 4 10 0 6 -5 10 -11 10 -5 0
-7 -4 -4 -10z"/>
<path d="M6511 1193 c7 -12 15 -20 18 -17 3 2 -3 12 -13 22 -17 16 -18 16 -5
-5z"/>
<path d="M6566 1198 c3 -5 10 -6 15 -3 13 9 11 12 -6 12 -8 0 -12 -4 -9 -9z"/>
<path d="M6490 1181 c0 -5 5 -13 10 -16 6 -3 10 -2 10 4 0 5 -4 13 -10 16 -5
3 -10 2 -10 -4z"/>
<path d="M6535 1159 c-6 -8 -4 -10 5 -4 10 6 12 4 6 -11 -6 -15 -5 -17 5 -6 9
9 10 15 2 23 -8 8 -13 7 -18 -2z"/>
<path d="M6499 1083 c-1 -5 -1 -12 0 -17 1 -5 -5 -6 -13 -3 -14 6 -32 -21 -21
-31 3 -3 5 -1 5 5 0 6 9 13 21 16 12 3 18 10 15 15 -3 6 0 13 6 15 10 4 10 6
1 6 -7 1 -14 -2 -14 -6z"/>
<path d="M6513 1035 c0 -8 4 -12 9 -9 5 3 6 10 3 15 -9 13 -12 11 -12 -6z"/>
<path d="M6470 1020 c-8 -5 -10 -10 -5 -10 6 0 17 5 25 10 8 5 11 10 5 10 -5
0 -17 -5 -25 -10z"/>
<path d="M6490 999 c0 -5 5 -7 12 -3 8 5 9 1 4 -12 -5 -14 -4 -16 5 -7 6 6 8
16 5 22 -9 14 -26 14 -26 0z"/>
<path d="M6460 985 c-7 -9 -8 -15 -2 -15 5 0 12 7 16 15 3 8 4 15 2 15 -2 0
-9 -7 -16 -15z"/>
<path d="M6395 970 c-3 -5 -1 -10 4 -10 6 0 11 5 11 10 0 6 -2 10 -4 10 -3 0
-8 -4 -11 -10z"/>
<path d="M6363 904 c-13 -25 -20 -51 -16 -57 4 -7 0 -8 -13 -3 -10 4 -15 4
-11 0 4 -4 0 -16 -9 -25 -16 -17 -15 -19 0 -25 10 -4 23 -1 29 6 10 10 7 11
-13 5 -22 -7 -23 -6 -11 9 19 23 28 20 45 -12 8 -16 22 -29 30 -29 8 0 13 4
10 9 -3 5 -10 5 -16 2 -8 -5 -9 -1 -5 10 4 9 3 15 -1 12 -4 -3 -13 4 -20 14
-6 11 -8 22 -3 24 5 3 12 -1 15 -10 4 -10 13 -13 27 -9 16 5 19 4 14 -5 -5 -8
-4 -11 3 -6 6 3 9 16 7 27 -3 16 0 19 13 14 13 -5 14 -3 5 6 -12 12 -37 3 -28
-11 3 -4 -2 -11 -11 -14 -22 -8 -26 -8 -19 4 6 9 -8 15 -29 11 -5 -1 -6 5 -2
14 3 9 6 19 6 22 0 2 7 -3 15 -11 13 -13 20 -13 35 -3 19 11 19 12 -5 25 -28
14 -33 29 -10 29 8 0 15 -5 15 -10 0 -6 2 -8 5 -5 9 8 -6 38 -19 38 -6 0 -21
-21 -33 -46z m36 -13 c8 -5 9 -11 3 -15 -5 -3 -15 1 -22 9 -14 16 -3 20 19 6z"/>
<path d="M6484 935 c-4 -8 -11 -12 -17 -8 -6 3 -7 1 -3 -5 11 -18 23 -14 29 8
6 23 -1 27 -9 5z"/>
<path d="M6440 886 c0 -2 7 -9 15 -16 13 -11 14 -10 9 4 -5 14 -24 23 -24 12z"/>
<path d="M6455 839 c-3 -4 2 -6 10 -5 21 3 28 13 10 13 -9 0 -18 -4 -20 -8z"/>
<path d="M6462 804 c10 -10 20 -16 22 -13 3 3 -5 11 -17 18 -21 13 -21 12 -5
-5z"/>
<path d="M6435 803 c3 -3 0 -11 -5 -18 -7 -8 -5 -12 4 -12 14 0 16 22 3 32 -4
3 -5 2 -2 -2z"/>
<path d="M6345 779 c-4 -6 -5 -12 -2 -15 2 -3 7 2 10 11 7 17 1 20 -8 4z"/>
<path d="M6310 767 c0 -7 9 -18 20 -25 11 -7 20 -8 20 -3 0 5 -7 12 -16 15 -8
3 -12 10 -9 16 3 5 1 10 -4 10 -6 0 -11 -6 -11 -13z"/>
<path d="M6466 762 c-3 -5 1 -9 9 -9 8 0 12 4 9 9 -3 4 -7 8 -9 8 -2 0 -6 -4
-9 -8z"/>
<path d="M6295 731 c3 -5 -4 -12 -15 -16 -11 -3 -20 -11 -20 -16 0 -5 11 -2
25 7 26 17 33 34 14 34 -5 0 -8 -4 -4 -9z"/>
<path d="M6326 717 c3 -10 9 -15 12 -12 3 3 0 11 -7 18 -10 9 -11 8 -5 -6z"/>
<path d="M6202 701 c-8 -4 -13 -12 -13 -17 0 -5 -7 -9 -16 -9 -12 0 -18 -9
-20 -28 l-2 -27 26 30 c14 17 28 28 31 25 3 -3 -5 -16 -17 -29 -12 -13 -19
-26 -14 -29 12 -8 40 -3 50 8 4 4 3 5 -3 2 -13 -8 -27 17 -16 28 5 5 12 56 7
55 0 0 -6 -4 -13 -9z m-2 -71 c0 -5 -5 -10 -11 -10 -5 0 -7 5 -4 10 3 6 8 10
11 10 2 0 4 -4 4 -10z"/>
<path d="M6310 701 c0 -6 4 -13 10 -16 6 -3 7 1 4 9 -7 18 -14 21 -14 7z"/>
<path d="M6410 699 c0 -5 5 -7 10 -4 6 3 10 8 10 11 0 2 -4 4 -10 4 -5 0 -10
-5 -10 -11z"/>
<path d="M6230 690 c0 -5 5 -10 10 -10 6 0 10 5 10 10 0 6 -4 10 -10 10 -5 0
-10 -4 -10 -10z"/>
<path d="M6376 687 c3 -10 9 -15 12 -12 3 3 0 11 -7 18 -10 9 -11 8 -5 -6z"/>
<path d="M6275 680 c-3 -5 -2 -10 4 -10 5 0 13 5 16 10 3 6 2 10 -4 10 -5 0
-13 -4 -16 -10z"/>
<path d="M6236 659 c3 -5 0 -9 -7 -9 -7 0 -9 -3 -6 -6 4 -4 14 -1 24 7 15 12
16 12 10 -4 -5 -12 -3 -16 5 -11 7 5 9 2 5 -9 -4 -11 -2 -14 8 -10 13 4 13 8
0 26 -14 20 -51 35 -39 16z"/>
<path d="M6313 655 c0 -8 4 -12 9 -9 4 3 8 9 8 15 0 5 -4 9 -8 9 -5 0 -9 -7
-9 -15z"/>
<path d="M6305 620 c-3 -6 1 -7 9 -4 18 7 21 14 7 14 -6 0 -13 -4 -16 -10z"/>
<path d="M6012 591 c6 -11 16 -17 22 -14 5 4 7 -1 3 -11 -4 -9 -3 -15 2 -11 5
3 11 0 13 -7 3 -7 7 -5 11 6 4 10 3 15 -3 11 -6 -3 -10 -2 -10 3 0 5 -11 17
-25 26 -25 16 -25 16 -13 -3z"/>
<path d="M6160 600 c8 -5 20 -10 25 -10 6 0 3 5 -5 10 -8 5 -19 10 -25 10 -5
0 -3 -5 5 -10z"/>
<path d="M6135 581 c-3 -5 0 -13 6 -17 8 -5 9 -3 4 6 -6 10 -4 12 9 7 10 -4
15 -3 11 3 -8 13 -22 13 -30 1z"/>
<path d="M6230 575 c5 -7 6 -16 2 -21 -4 -5 -3 -5 2 -1 15 12 15 34 0 34 -9 0
-11 -4 -4 -12z"/>
<path d="M6290 580 c0 -5 5 -10 11 -10 5 0 7 5 4 10 -3 6 -8 10 -11 10 -2 0
-4 -4 -4 -10z"/>
<path d="M5857 566 c4 -5 -3 -7 -15 -4 -12 4 -22 2 -22 -3 0 -5 13 -8 29 -7
16 1 27 6 25 10 -3 4 0 8 7 8 7 0 9 -8 6 -21 -4 -16 -3 -19 5 -11 16 16 2 41
-21 39 -11 0 -17 -5 -14 -11z"/>
<path d="M5910 570 c0 -5 5 -10 10 -10 6 0 10 5 10 10 0 6 -4 10 -10 10 -5 0
-10 -4 -10 -10z"/>
<path d="M5990 570 c0 -5 5 -10 10 -10 6 0 10 5 10 10 0 6 -4 10 -10 10 -5 0
-10 -4 -10 -10z"/>
<path d="M6113 558 c1 -16 5 -28 9 -28 10 0 9 9 -2 35 -8 17 -8 16 -7 -7z"/>
<path d="M5454 546 c-5 -14 -9 -15 -15 -4 -6 9 -9 9 -9 1 0 -6 4 -14 9 -17 11
-7 36 22 28 31 -4 3 -10 -2 -13 -11z"/>
<path d="M5766 536 c-19 -30 -20 -36 -4 -36 6 0 8 3 5 7 -4 3 0 15 10 25 9 10
14 20 11 23 -3 3 -13 -6 -22 -19z"/>
<path d="M5973 550 c2 -8 12 -15 23 -15 10 0 22 -6 26 -15 6 -11 7 -10 5 5 -1
13 -10 20 -22 20 -11 -1 -24 4 -28 10 -5 6 -7 4 -4 -5z"/>
<path d="M5407 530 c3 -11 9 -20 15 -20 5 0 4 9 -2 20 -6 11 -12 20 -14 20 -2
0 -2 -9 1 -20z"/>
<path d="M5486 537 c3 -10 9 -15 12 -12 3 3 0 11 -7 18 -10 9 -11 8 -5 -6z"/>
<path d="M5600 544 c0 -13 18 -39 24 -34 2 3 -2 14 -10 24 -8 11 -14 16 -14
10z"/>
<path d="M5807 534 c5 -13 3 -15 -7 -9 -9 5 -11 4 -6 -3 4 -7 11 -12 17 -12
12 0 12 27 -1 35 -6 4 -7 -1 -3 -11z"/>
<path d="M5650 535 c0 -5 5 -17 10 -25 5 -8 10 -10 10 -5 0 6 -5 17 -10 25 -5
8 -10 11 -10 5z"/>
<path d="M5856 525 c-9 -26 -7 -32 5 -12 6 10 9 21 6 23 -2 3 -7 -2 -11 -11z"/>
<path d="M5385 520 c-3 -5 -1 -10 4 -10 6 0 11 5 11 10 0 6 -2 10 -4 10 -3 0
-8 -4 -11 -10z"/>
<path d="M5471 514 c0 -11 3 -14 6 -6 3 7 2 16 -1 19 -3 4 -6 -2 -5 -13z"/>
<path d="M5895 521 c-4 -7 0 -8 11 -4 11 4 15 3 10 -5 -3 -6 -2 -13 3 -16 5
-4 8 2 7 11 -3 20 -21 28 -31 14z"/>
<path d="M5948 512 c-3 -11 0 -19 7 -19 8 0 11 7 7 15 -4 11 -1 13 8 7 9 -5
11 -4 6 3 -11 17 -23 15 -28 -6z"/>
<path d="M5516 507 c3 -10 9 -15 12 -12 3 3 0 11 -7 18 -10 9 -11 8 -5 -6z"/>
<path d="M5493 503 c4 -6 2 -13 -4 -15 -7 -2 -6 -8 3 -16 12 -9 14 -8 13 8 -1
11 -5 23 -10 27 -4 5 -5 3 -2 -4z"/>
<path d="M5630 500 c-13 -8 -12 -10 3 -10 9 0 17 5 17 10 0 12 -1 12 -20 0z"/>
<path d="M5870 505 c0 -5 5 -17 10 -25 5 -8 10 -10 10 -5 0 6 -5 17 -10 25 -5
8 -10 11 -10 5z"/>
<path d="M6035 491 c-3 -5 -2 -12 3 -15 5 -3 9 1 9 9 0 17 -3 19 -12 6z"/>
<path d="M5395 480 c-3 -5 -1 -10 4 -10 6 0 11 5 11 10 0 6 -2 10 -4 10 -3 0
-8 -4 -11 -10z"/>
<path d="M5536 474 c-5 -14 -4 -15 9 -4 17 14 19 20 6 20 -5 0 -12 -7 -15 -16z"/>
<path d="M5715 480 c-3 -5 -1 -10 4 -10 6 0 11 5 11 10 0 6 -2 10 -4 10 -3 0
-8 -4 -11 -10z"/>
<path d="M5830 481 c0 -6 4 -13 10 -16 6 -3 7 1 4 9 -7 18 -14 21 -14 7z"/>
<path d="M5990 486 c0 -2 7 -7 16 -10 8 -3 12 -2 9 4 -6 10 -25 14 -25 6z"/>
<path d="M6105 480 c-3 -6 1 -7 9 -4 18 7 21 14 7 14 -6 0 -13 -4 -16 -10z"/>
<path d="M5591 454 c6 -7 7 -19 3 -25 -4 -7 -3 -9 4 -5 15 9 11 43 -5 43 -9 0
-10 -4 -2 -13z"/>
<path d="M5629 457 c6 -8 7 -18 3 -22 -4 -5 -1 -5 6 -1 10 6 10 11 1 22 -6 8
-14 14 -16 14 -3 0 0 -6 6 -13z"/>
<path d="M5786 458 c3 -4 9 -8 15 -8 5 0 9 4 9 8 0 5 -7 9 -15 9 -8 0 -12 -4
-9 -9z"/>
<path d="M5376 447 c3 -10 9 -15 12 -12 3 3 0 11 -7 18 -10 9 -11 8 -5 -6z"/>
<path d="M5475 440 c-3 -5 -1 -10 4 -10 6 0 11 5 11 10 0 6 -2 10 -4 10 -3 0
-8 -4 -11 -10z"/>
<path d="M5230 425 c0 -7 30 -13 34 -7 3 4 -4 9 -15 9 -10 1 -19 0 -19 -2z"/>
<path d="M5295 420 c3 -5 8 -10 11 -10 2 0 4 5 4 10 0 6 -5 10 -11 10 -5 0 -7
-4 -4 -10z"/>
<path d="M5550 426 c0 -2 7 -7 16 -10 8 -3 12 -2 9 4 -6 10 -25 14 -25 6z"/>
<path d="M5736 422 c-3 -5 1 -9 9 -9 8 0 12 4 9 9 -3 4 -7 8 -9 8 -2 0 -6 -4
-9 -8z"/>
<path d="M5180 366 c0 -2 8 -10 18 -17 15 -13 16 -12 3 4 -13 16 -21 21 -21
13z"/>
</g>
</svg>
