<svg xmlns="http://www.w3.org/2000/svg" version="1.1" xmlns:xlink="http://www.w3.org/1999/xlink" xmlns:svgjs="http://svgjs.com/svgjs" width="58.111683mm" height="58.152756mm"><svg xmlns:dc="http://purl.org/dc/elements/1.1/" xmlns:cc="http://creativecommons.org/ns#" xmlns:rdf="http://www.w3.org/1999/02/22-rdf-syntax-ns#" xmlns:svg="http://www.w3.org/2000/svg" xmlns="http://www.w3.org/2000/svg" xmlns:sodipodi="http://sodipodi.sourceforge.net/DTD/sodipodi-0.dtd" xmlns:inkscape="http://www.inkscape.org/namespaces/inkscape" width="58.111683mm" height="58.152756mm" viewBox="0 0 58.111683 58.152755" version="1.1" id="SvgjsSvg1012" inkscape:version="1.0.2 (e86c870879, 2021-01-15)" sodipodi:docname="rd.svg">
  <defs id="SvgjsDefs1011">
    <clipPath clipPathUnits="userSpaceOnUse" id="SvgjsClipPath1010">
      <g inkscape:label="Clip" id="SvgjsG1009">
        <path id="SvgjsPath1008" style="opacity:0.5;fill:#208a21;fill-opacity:1;stroke:#20212b;stroke-width:0.264583;stroke-linecap:round;stroke-linejoin:round;stroke-miterlimit:4;stroke-dasharray:none;stroke-opacity:1" d="m 111.125,100.54167 h 2.64583 V 111.125 H 111.125 Z m -2.64584,-1.322921 h 2.64583 v 18.520831 h -2.64583 z m -2.64583,-2.645832 h 2.64584 v 25.135413 h -2.64584 z m -2.64583,2.645832 h 2.64583 V 127 h -2.64583 z m -2.64584,2.645831 h 2.64583 v 30.42708 h -2.64583 z m -2.645826,5.29167 h 2.645836 v 30.42708 h -2.645836 z m -2.645836,-1.32292 h 2.645833 v 31.75 h -2.645833 z m -2.645836,2.64583 h 2.645833 v 31.75 h -2.645833 z m -2.645828,5.29167 h 2.645833 v 25.13541 h -2.645833 z m -2.645836,3.96875 h 2.645833 v 19.84375 h -2.645833 z m -2.645836,-2.64583 h 2.645833 v 24.34167 h -2.645833 z m -2.645828,-1.32292 h 2.645833 v 25.13541 h -2.645833 z m -2.645836,5.29167 h 2.645833 v 18.52083 h -2.645833 z m -2.645836,-1.32292 h 2.645833 v 21.16666 h -2.645833 z m -2.645832,-2.64583 h 2.645833 v 25.13542 H 74.08333 Z m -2.645832,1.32291 h 2.645833 v 22.48959 h -2.645833 z m -2.645836,1.32292 h 2.645833 v 22.48958 h -2.645833 z m -2.645832,-5.29167 h 2.645833 v 26.45834 H 66.14583 Z M 42.333332,101.86458 h 2.645835 v 10.58333 h -2.645835 z m 2.645832,1.32292 h 2.645833 v 11.90625 h -2.645833 z m 18.520834,3.96875 h 2.645833 v 31.75 h -2.645833 z m -2.645832,-1.32292 h 2.645833 v 33.07292 h -2.645833 z m -2.645836,3.96875 h 2.645833 v 29.10416 H 58.20833 Z m -2.645832,-2.64583 h 2.645833 V 134.9375 H 55.562498 Z M 52.916666,93.927081 h 2.645833 v 35.718749 h -2.645833 z m -2.645836,6.614589 h 2.645833 v 25.13541 H 50.27083 Z m -2.645832,-2.645839 h 2.645833 v 21.166659 h -2.645833 z"></path>
      </g>
    </clipPath>
  </defs>
  <sodipodi:namedview id="SvgjsSodipodi:namedview1007" pagecolor="#ffffff" bordercolor="#666666" borderopacity="1.0" inkscape:pageopacity="0.0" inkscape:pageshadow="2" inkscape:zoom="2.8" inkscape:cx="262.87826" inkscape:cy="145.77419" inkscape:document-units="mm" inkscape:current-layer="layer1" inkscape:document-rotation="0" showgrid="false" inkscape:window-width="2560" inkscape:window-height="1372" inkscape:window-x="0" inkscape:window-y="34" inkscape:window-maximized="1">
    <inkscape:grid type="xygrid" id="SvgjsInkscape:grid1006" originx="-34.115167" originy="-35.579042"></inkscape:grid>
  </sodipodi:namedview>
  <metadata id="SvgjsMetadata1005">
    <rdf:rdf>
      <cc:work rdf:about="">
        <dc:format>image/svg+xml</dc:format>
        <dc:type rdf:resource="http://purl.org/dc/dcmitype/StillImage"></dc:type>
        <dc:title></dc:title>
      </cc:work>
    </rdf:rdf>
  </metadata>
  <g inkscape:label="Layer 1" inkscape:groupmode="layer" id="SvgjsG1004" transform="translate(-34.115166,-35.579044)">
    <rect style="opacity:1;fill:#782121;fill-opacity:1;stroke-width:0.132292;stroke-linecap:round;stroke-linejoin:round" id="SvgjsRect1003" width="58.007103" height="58.007107" x="34.200836" y="35.579044"></rect>
    <path id="SvgjsPath1002" style="opacity:0.86879539;fill:#000000;fill-opacity:1;stroke:#33212b;stroke-width:0.258846;stroke-linecap:butt;stroke-linejoin:miter;stroke-miterlimit:4;stroke-dasharray:none;stroke-opacity:1" d="m 37.674089,53.280721 -1e-6,6.330295 -2.60197,0.01587 V 57.09477 h -0.733054 l -0.138228,36.491381 h 58.007103 l -0.173456,-29.719487 0.06294,-5.521711 v 0 l -0.01445,-2.532116 -1.487586,10e-7 v 2.532116 l -2.646062,-1e-6 v 2.532126 l -2.646065,10e-7 v 5.064232 l -2.646063,-10e-7 v -1.266053 h -2.646064 v 2.532116 h -2.646064 v 5.064242 h -2.646064 l 10e-7,3.79818 -2.646065,-10e-7 v -2.53213 H 69.426854 V 72.271611 H 66.78079 v 5.064232 H 64.134727 V 76.06979 l -2.646063,10e-7 -10e-7,-2.532127 h -2.646064 v 1.266063 l -2.646063,1e-6 -1e-6,1.266062 -2.646064,10e-7 v -5.064242 l -2.646064,-10e-7 v -5.064242 l -2.646063,10e-7 v -1.266054 l -2.646063,10e-7 v 3.798178 l -2.646065,10e-7 v -2.532127 h -2.646063 v -12.66059 z" sodipodi:nodetypes="cccccccccccccccccccccccccccccccccccccccccccccccccccc"></path>
    <path d="M 76.170326,46.308321 64.19784,46.259431 c -4.959381,0 -8.186914,1.48245 -9.6826,4.447351 -0.511683,1.010023 -0.767524,2.166659 -0.767524,3.469909 V 86.67657 H 43.651833 l -0.05903,-43.300578 c -1.731847,0 -2.597771,-0.537591 -2.597771,-1.612774 v -2.834566 h 11.630927 v 4.447351 c 0.551044,-1.303253 1.554729,-2.378436 3.011054,-3.22555 1.456324,-0.847116 3.01105,-1.270674 4.664178,-1.270674 h 15.863547 z" style="font-style:normal;font-variant:normal;font-weight:normal;font-stretch:normal;font-size:50.8px;line-height:1.25;font-family:Uroob;-inkscape-font-specification:Uroob;letter-spacing:0px;word-spacing:0px;fill:#ffd700;fill-opacity:1;stroke:#552200;stroke-width:0.264583;stroke-miterlimit:4;stroke-dasharray:none;stroke-opacity:1" id="SvgjsPath1001" sodipodi:nodetypes="cccscccscccsscc"></path>
    <path d="m 72.536073,56.527754 q 1.982319,0 3.634253,1.032267 v -11.2517 h 5.682649 v 43.630442 h -5.18707 v -1.617215 q -2.147513,1.617215 -4.790605,1.617215 h -2.312707 q -4.228949,0 -6.706847,-2.855935 -2.510939,-2.855936 -2.510939,-7.294678 V 66.712779 q 0,-7.225862 4.658451,-9.42803 1.618895,-0.756995 3.898562,-0.756995 z m 3.634253,25.806651 V 63.994478 q 0,-0.997858 -0.892044,-1.686033 -0.892044,-0.688178 -1.817127,-0.688178 h -3.502098 q -3.402981,0 -3.832483,3.372068 -0.132157,1.032267 -0.132157,2.16776 v 12.524828 q 0.03305,2.68389 0.561657,3.544111 1.024199,1.651627 3.402982,1.651627 h 2.841326 q 1.817124,0 3.006517,-1.513991 0.363426,-0.481723 0.363427,-1.032265 z" style="font-style:normal;font-variant:normal;font-weight:normal;font-stretch:normal;font-size:50.8px;line-height:1.25;font-family:Uroob;-inkscape-font-specification:Uroob;letter-spacing:0px;word-spacing:0px;fill:#ffefd5;fill-opacity:1;stroke:#552200;stroke-width:0.264583;stroke-miterlimit:4;stroke-dasharray:none;stroke-opacity:1" id="SvgjsPath1000"></path>
  </g>
</svg><style>@media (prefers-color-scheme: light) { :root { filter: none; } }
</style></svg>